<?xml version="1.0" standalone="no"?><!DOCTYPE svg PUBLIC "-//W3C//DTD SVG 1.1//EN" "http://www.w3.org/Graphics/SVG/1.1/DTD/svg11.dtd"><svg class="icon" height="512" viewBox="0 0 1024 1024" version="1.1" xmlns="http://www.w3.org/2000/svg"><path d="M461.0093 785.521804c-12.299993 0-24.59846-4.698942-33.978025-14.089195L229.426855 573.854142c-18.748444-18.766764-18.748444-49.170967 0-67.934677 18.745391-18.763711 49.16944-18.763711 67.923991 0L461.0093 669.590132l418.050158-418.102063c18.766764-18.763711 49.180126-18.763711 67.943837 0 18.730125 18.740811 18.730125 49.155701 0 67.923991L494.949159 771.443296a47.873338 47.873338 0 0 1-33.939859 14.078508z m50.987647 238.46293C229.684854 1023.984734 0 794.305986 0 511.996947 0 229.684854 229.684854 0 511.996947 0c100.706671 0 198.190643 29.224124 281.870899 84.510739 16.855433 11.133654 21.484151 33.819256 10.36729 50.673162-11.132127 16.844747-33.816203 21.499417-50.671637 10.365763-71.700854-47.371079-155.239134-72.409206-241.566552-72.409206-241.994007 0-438.854962 196.862482-438.854962 438.856489 0 241.9879 196.862482 438.850382 438.854962 438.850382 241.990954 0 438.853435-196.862482 438.853435-438.850382 0-15.273853-0.777051-30.651516-2.338785-45.713168-2.079259-20.097978 12.52746-38.061739 32.616278-40.131838 20.070499-2.083839 38.061739 12.528986 40.131839 32.613225a519.310993 519.310993 0 0 1 2.7296 53.231781c-0.001527 282.30904-229.681801 511.987787-511.992367 511.987787z" /></svg>